# xmcd CD database file
#
# Track frame offsets:
#	150
#	12158
#	30163
#	40448
#	51988
#	63428
#	79533
#	100598
#	111013
#	127770
#	148493
#
# Disc length: 2263 seconds
#
# Revision: 0
# Processed by: cddbd v1.4PL0 Copyright (c) Steve Scherf et al.
# Submitted via: CDex 1.40Release
#
DISCID=8708d50b
DTITLE=Various Artist - Mainstream Sampler
DYEAR=1993
DGENRE=Blues
TTITLE0=The Lady's in Love - Maynard Ferguson
TTITLE1=Driftin' - Charlie Brown
TTITLE2=Key to the Highway - Sonny Terry and Brownie McGhee
TTITLE3=My Heart to Weep - Lightin' Hopkins
TTITLE4=Dancing on the Grave - Clark Terry and Bob Brookmeyer
TTITLE5=So Are You - Art Farmer
TTITLE6=Blue Funk /Blue Mitchell
TTITLE7=The Lady is a Tramp - Morgana King
TTITLE8=The Music that makes me Dance - Carmen McRae
TTITLE9=Willow Weep for Me - Sarah Vaughan
TTITLE10=Woodyn' You - Dizzy Gillespie and the Mitchell-Ruff Duo
EXTD=YEAR: 1993 ID3G: 0
EXTT0=
EXTT1=
EXTT2=
EXTT3=
EXTT4=
EXTT5=
EXTT6=
EXTT7=
EXTT8=
EXTT9=
EXTT10=
PLAYORDER=
